<svg width="21" height="21" viewBox="0 0 21 21" fill="none" xmlns="http://www.w3.org/2000/svg">
<path fill-rule="evenodd" clip-rule="evenodd" d="M7.63428 5.24021L12.0741 10.0833L7.63428 14.9265C7.52098 15.0501 7.45898 15.2156 7.45898 15.3861C7.45898 15.5566 7.52098 15.7221 7.63428 15.8457C7.74792 15.9697 7.90449 16.0417 8.07031 16.0417C8.23613 16.0417 8.39271 15.9697 8.50634 15.8457L13.3669 10.543C13.4231 10.4817 13.4672 10.4095 13.4971 10.3308C13.527 10.2521 13.5423 10.168 13.5423 10.0833C13.5423 9.99866 13.527 9.9146 13.4971 9.83587C13.4672 9.75713 13.4231 9.68493 13.3669 9.62365L8.50634 4.32094C8.45013 4.25961 8.38281 4.21033 8.3079 4.17648C8.23295 4.14261 8.15218 4.125 8.07031 4.125C7.98844 4.125 7.90768 4.14261 7.83273 4.17648C7.75781 4.21033 7.69049 4.25961 7.63428 4.32094C7.57809 4.38224 7.53403 4.45444 7.50414 4.53316C7.47426 4.61188 7.45898 4.69592 7.45898 4.78057C7.45898 4.86522 7.47426 4.94926 7.50414 5.02798C7.53403 5.10671 7.5781 5.17891 7.63428 5.24021Z" fill="#FFBF4E"/>
</svg>
