<svg width="33" height="33" viewBox="0 0 33 33" fill="none" xmlns="http://www.w3.org/2000/svg">
<path d="M25.0401 16.5C25.0401 16.6856 24.9609 16.8637 24.82 16.9949C24.6791 17.1262 24.488 17.2 24.2887 17.2H9.57144L15.052 22.3044C15.1218 22.3695 15.1772 22.4467 15.215 22.5316C15.2528 22.6166 15.2722 22.7077 15.2722 22.7996C15.2722 22.8916 15.2528 22.9827 15.215 23.0677C15.1772 23.1526 15.1218 23.2298 15.052 23.2949C14.9822 23.3599 14.8993 23.4115 14.8081 23.4467C14.7169 23.4819 14.6191 23.5 14.5204 23.5C14.4217 23.5 14.3239 23.4819 14.2327 23.4467C14.1415 23.4115 14.0586 23.3599 13.9888 23.2949L7.22611 16.9952C7.15625 16.9302 7.10083 16.853 7.06301 16.768C7.0252 16.6831 7.00574 16.592 7.00574 16.5C7.00574 16.408 7.0252 16.3169 7.06301 16.232C7.10083 16.147 7.15625 16.0698 7.22611 16.0048L13.9888 9.70513C14.1298 9.57379 14.321 9.5 14.5204 9.5C14.7198 9.5 14.911 9.57379 15.052 9.70513C15.193 9.83647 15.2722 10.0146 15.2722 10.2004C15.2722 10.3861 15.193 10.5642 15.052 10.6956L9.57144 15.8H24.2887C24.488 15.8 24.6791 15.8738 24.82 16.0051C24.9609 16.1363 25.0401 16.3144 25.0401 16.5Z" fill="white"/>
</svg>
